STARTFONT 2.1
FONT -FontForge-Butcherman-Book-R-Normal--14-140-72-72-P-76-ISO10646-1
SIZE 14 72 72
FONTBOUNDINGBOX 21 27 -1 -9
COMMENT "Generated by fontforge, http://fontforge.sourceforge.net"
COMMENT "Copyright (c) 2011, Typomondo, with Reserved Font Name  "Butcherman"."
STARTPROPERTIES 40
FOUNDRY "FontForge"
FAMILY_NAME "Butcherman"
WEIGHT_NAME "Book"
SLANT "R"
SETWIDTH_NAME "Normal"
ADD_STYLE_NAME ""
PIXEL_SIZE 14
POINT_SIZE 140
RESOLUTION_X 72
RESOLUTION_Y 72
SPACING "P"
AVERAGE_WIDTH 76
CHARSET_REGISTRY "ISO10646"
CHARSET_ENCODING "1"
FONTNAME_REGISTRY ""
CHARSET_COLLECTIONS "ISO8859-2 ISO8859-9 ISO8859-4 ISO10646-1"
FONT_NAME "Butcherman-Regular"
FACE_NAME "Butcherman Regular"
COPYRIGHT "Copyright (c) 2011, Typomondo, with Reserved Font Name  "Butcherman"."
FONT_VERSION "001.004"
FONT_ASCENT 11
FONT_DESCENT 3
UNDERLINE_POSITION -1
UNDERLINE_THICKNESS 1
X_HEIGHT 9
CAP_HEIGHT 9
DEFAULT_CHAR 3
RAW_ASCENT 799
RAW_DESCENT 200
NORM_SPACE 2
RELATIVE_WEIGHT 40
RELATIVE_SETWIDTH 50
SUPERSCRIPT_X 0
SUPERSCRIPT_Y 4
SUPERSCRIPT_SIZE 8
SUBSCRIPT_X 0
SUBSCRIPT_Y 1
SUBSCRIPT_SIZE 8
AVG_LOWERCASE_WIDTH 82
AVG_UPPERCASE_WIDTH 78
ENDPROPERTIES
CHARS 331
STARTCHAR NULL.dup1
ENCODING 0
SWIDTH 161 0
DWIDTH 2 0
BBX 1 1 0 0
BITMAP
00
ENDCHAR
STARTCHAR CR
ENCODING 13
SWIDTH 161 0
DWIDTH 2 0
BBX 1 1 0 0
BITMAP
00
ENDCHAR
STARTCHAR space
ENCODING 32
SWIDTH 161 0
DWIDTH 2 0
BBX 1 1 0 0
BITMAP
00
ENDCHAR
STARTCHAR exclam
ENCODING 33
SWIDTH 350 0
DWIDTH 5 0
BBX 5 16 0 1
BITMAP
F8
70
70
70
70
60
70
20
60
20
20
00
F0
70
70
70
ENDCHAR
STARTCHAR quotedbl
ENCODING 34
SWIDTH 541 0
DWIDTH 8 0
BBX 6 5 1 5
BITMAP
DC
DC
CC
C8
48
ENDCHAR
STARTCHAR numbersign
ENCODING 35
SWIDTH 583 0
DWIDTH 8 0
BBX 8 12 0 -1
BITMAP
13
12
12
7F
7E
36
24
64
FE
FC
48
C8
ENDCHAR
STARTCHAR dollar
ENCODING 36
SWIDTH 534 0
DWIDTH 7 0
BBX 7 18 0 -4
BITMAP
10
10
10
10
3C
7E
7E
FE
6E
78
7C
0C
6C
7C
30
10
10
10
ENDCHAR
STARTCHAR percent
ENCODING 37
SWIDTH 828 0
DWIDTH 12 0
BBX 11 12 0 -1
BITMAP
0100
7300
F200
7200
5260
76E0
64E0
04E0
0CA0
08C0
0800
0800
ENDCHAR
STARTCHAR ampersand
ENCODING 38
SWIDTH 522 0
DWIDTH 7 0
BBX 6 7 1 2
BITMAP
30
30
F4
FC
FC
30
30
ENDCHAR
STARTCHAR quotesingle
ENCODING 39
SWIDTH 300 0
DWIDTH 4 0
BBX 2 5 1 5
BITMAP
C0
C0
C0
C0
C0
ENDCHAR
STARTCHAR parenleft
ENCODING 40
SWIDTH 372 0
DWIDTH 5 0
BBX 4 14 1 -2
BITMAP
10
70
70
F0
F0
C0
C0
C0
C0
C0
C0
E0
70
20
ENDCHAR
STARTCHAR parenright
ENCODING 41
SWIDTH 338 0
DWIDTH 5 0
BBX 4 14 0 -2
BITMAP
80
E0
70
70
70
30
30
30
30
30
30
20
E0
C0
ENDCHAR
STARTCHAR asterisk
ENCODING 42
SWIDTH 513 0
DWIDTH 7 0
BBX 7 8 0 3
BITMAP
28
2C
38
FE
7E
38
28
2C
ENDCHAR
STARTCHAR plus
ENCODING 43
SWIDTH 458 0
DWIDTH 6 0
BBX 5 6 1 2
BITMAP
60
60
F8
F8
60
60
ENDCHAR
STARTCHAR comma
ENCODING 44
SWIDTH 361 0
DWIDTH 5 0
BBX 3 7 1 -2
BITMAP
E0
E0
E0
E0
20
20
20
ENDCHAR
STARTCHAR hyphen
ENCODING 45
SWIDTH 478 0
DWIDTH 7 0
BBX 5 3 1 4
BITMAP
F8
F8
F8
ENDCHAR
STARTCHAR period
ENCODING 46
SWIDTH 374 0
DWIDTH 5 0
BBX 5 4 0 1
BITMAP
F0
70
78
70
ENDCHAR
STARTCHAR slash
ENCODING 47
SWIDTH 291 0
DWIDTH 4 0
BBX 4 12 0 -1
BITMAP
10
10
30
20
20
60
40
40
40
40
80
80
ENDCHAR
STARTCHAR zero
ENCODING 48
SWIDTH 528 0
DWIDTH 7 0
BBX 6 11 1 -1
BITMAP
78
FC
FC
FC
DC
DC
DC
D8
D8
F8
30
ENDCHAR
STARTCHAR one
ENCODING 49
SWIDTH 366 0
DWIDTH 5 0
BBX 5 10 0 0
BITMAP
70
F0
38
30
30
30
30
30
30
30
ENDCHAR
STARTCHAR two
ENCODING 50
SWIDTH 575 0
DWIDTH 8 0
BBX 7 12 1 -2
BITMAP
F8
FC
FC
FC
DC
DC
18
38
7E
FE
FC
04
ENDCHAR
STARTCHAR three
ENCODING 51
SWIDTH 517 0
DWIDTH 7 0
BBX 7 11 0 -1
BITMAP
78
FC
7C
7E
6E
8C
1C
0C
34
3C
18
ENDCHAR
STARTCHAR four
ENCODING 52
SWIDTH 466 0
DWIDTH 7 0
BBX 6 13 0 -3
BITMAP
7C
70
70
70
70
78
6C
68
7C
FC
0C
08
08
ENDCHAR
STARTCHAR five
ENCODING 53
SWIDTH 583 0
DWIDTH 8 0
BBX 7 11 1 -1
BITMAP
FE
FE
FC
FC
DC
C0
F8
18
68
78
30
ENDCHAR
STARTCHAR six
ENCODING 54
SWIDTH 582 0
DWIDTH 8 0
BBX 7 11 1 -1
BITMAP
F8
FC
FE
FC
DC
CC
F0
CC
6C
7C
7C
ENDCHAR
STARTCHAR seven
ENCODING 55
SWIDTH 624 0
DWIDTH 9 0
BBX 9 11 0 -1
BITMAP
FF80
7F00
7F00
7F00
7600
0600
0E00
0C00
0C00
1800
1800
ENDCHAR
STARTCHAR eight
ENCODING 56
SWIDTH 459 0
DWIDTH 6 0
BBX 5 11 1 -1
BITMAP
F8
F8
F8
F8
D0
D0
70
D0
D0
70
60
ENDCHAR
STARTCHAR nine
ENCODING 57
SWIDTH 584 0
DWIDTH 8 0
BBX 7 12 1 -2
BITMAP
7C
FC
FC
FE
CE
FE
FC
0C
FC
F8
68
20
ENDCHAR
STARTCHAR colon
ENCODING 58
SWIDTH 386 0
DWIDTH 5 0
BBX 5 11 0 1
BITMAP
F8
70
78
78
40
00
00
F8
70
78
70
ENDCHAR
STARTCHAR semicolon
ENCODING 59
SWIDTH 375 0
DWIDTH 5 0
BBX 4 14 0 -2
BITMAP
F0
70
70
70
40
00
00
70
70
70
70
10
10
10
ENDCHAR
STARTCHAR less
ENCODING 60
SWIDTH 459 0
DWIDTH 6 0
BBX 6 8 0 1
BITMAP
3C
38
38
F0
70
70
38
1C
ENDCHAR
STARTCHAR equal
ENCODING 61
SWIDTH 485 0
DWIDTH 7 0
BBX 5 5 1 4
BITMAP
40
F8
00
F8
F8
ENDCHAR
STARTCHAR greater
ENCODING 62
SWIDTH 432 0
DWIDTH 6 0
BBX 6 8 0 1
BITMAP
F0
70
38
1C
38
38
70
60
ENDCHAR
STARTCHAR question
ENCODING 63
SWIDTH 577 0
DWIDTH 8 0
BBX 6 13 1 -2
BITMAP
70
FC
FC
FC
DC
1C
18
38
30
00
70
30
48
ENDCHAR
STARTCHAR at
ENCODING 64
SWIDTH 930 0
DWIDTH 13 0
BBX 13 15 0 -3
BITMAP
0F00
1FC0
3060
2FA0
4FB0
4FB0
4DB8
CDB8
4F90
4D90
4FF0
6F60
3000
1880
0F80
ENDCHAR
STARTCHAR A
ENCODING 65
SWIDTH 494 0
DWIDTH 7 0
BBX 7 13 0 -3
BITMAP
FE
78
38
78
38
68
68
38
78
28
28
68
10
ENDCHAR
STARTCHAR B
ENCODING 66
SWIDTH 517 0
DWIDTH 7 0
BBX 7 11 0 -1
BITMAP
FE
7E
7E
3E
34
34
3C
3C
3C
3C
18
ENDCHAR
STARTCHAR C
ENCODING 67
SWIDTH 504 0
DWIDTH 7 0
BBX 7 12 0 -2
BITMAP
7C
7E
FE
FE
6E
6C
60
6C
6C
3C
28
10
ENDCHAR
STARTCHAR D
ENCODING 68
SWIDTH 522 0
DWIDTH 7 0
BBX 7 12 0 -2
BITMAP
FC
7E
7E
7E
76
36
34
34
3C
3C
28
30
ENDCHAR
STARTCHAR E
ENCODING 69
SWIDTH 570 0
DWIDTH 8 0
BBX 8 11 0 -1
BITMAP
FF
7E
7E
7C
74
3C
38
30
3C
3C
34
ENDCHAR
STARTCHAR F
ENCODING 70
SWIDTH 559 0
DWIDTH 8 0
BBX 7 11 0 -1
BITMAP
FE
7E
3E
3C
3C
3C
3C
34
30
30
38
ENDCHAR
STARTCHAR G
ENCODING 71
SWIDTH 499 0
DWIDTH 7 0
BBX 7 11 0 -1
BITMAP
7C
7C
FE
7E
6C
6C
6C
6C
6C
3C
28
ENDCHAR
STARTCHAR H
ENCODING 72
SWIDTH 726 0
DWIDTH 10 0
BBX 10 13 0 -3
BITMAP
FBC0
7380
7380
3300
3300
3F00
3F00
3700
3600
3600
2600
0400
0400
ENDCHAR
STARTCHAR I
ENCODING 73
SWIDTH 401 0
DWIDTH 6 0
BBX 5 11 0 -1
BITMAP
F8
70
38
30
30
30
30
30
30
30
30
ENDCHAR
STARTCHAR J
ENCODING 74
SWIDTH 455 0
DWIDTH 6 0
BBX 6 11 0 -1
BITMAP
3C
18
18
18
18
18
50
D0
F0
F0
20
ENDCHAR
STARTCHAR K
ENCODING 75
SWIDTH 580 0
DWIDTH 8 0
BBX 8 11 0 -1
BITMAP
F7
74
3C
3C
3C
3C
3C
3C
34
34
34
ENDCHAR
STARTCHAR L
ENCODING 76
SWIDTH 416 0
DWIDTH 6 0
BBX 6 11 0 -1
BITMAP
F8
70
70
70
70
70
30
30
3C
3C
3C
ENDCHAR
STARTCHAR M
ENCODING 77
SWIDTH 740 0
DWIDTH 10 0
BBX 10 12 0 -1
BITMAP
0D00
FBC0
7F80
7F80
3F80
3F80
3F80
3F80
3F80
3700
3700
2100
ENDCHAR
STARTCHAR N
ENCODING 78
SWIDTH 610 0
DWIDTH 9 0
BBX 8 12 0 -2
BITMAP
F7
76
7E
7E
7E
3E
3E
3E
3E
34
34
38
ENDCHAR
STARTCHAR O
ENCODING 79
SWIDTH 504 0
DWIDTH 7 0
BBX 7 11 0 -1
BITMAP
7C
7E
FE
7E
6E
6E
6E
6C
6C
3C
28
ENDCHAR
STARTCHAR P
ENCODING 80
SWIDTH 545 0
DWIDTH 8 0
BBX 7 11 0 -1
BITMAP
FE
7E
3E
3E
36
36
3E
3C
30
30
30
ENDCHAR
STARTCHAR Q
ENCODING 81
SWIDTH 520 0
DWIDTH 7 0
BBX 7 12 0 -2
BITMAP
3C
7E
FE
FE
76
66
66
7E
3C
3E
1E
04
ENDCHAR
STARTCHAR R
ENCODING 82
SWIDTH 599 0
DWIDTH 8 0
BBX 8 11 0 -1
BITMAP
FE
7F
3F
3F
33
37
3E
3E
16
16
1A
ENDCHAR
STARTCHAR S
ENCODING 83
SWIDTH 504 0
DWIDTH 7 0
BBX 7 11 0 -1
BITMAP
3C
7E
FE
FE
EE
70
7C
0C
6C
7C
38
ENDCHAR
STARTCHAR T
ENCODING 84
SWIDTH 622 0
DWIDTH 9 0
BBX 8 12 0 -2
BITMAP
FF
7F
7F
7E
7E
0C
1C
1C
0C
0C
0C
10
ENDCHAR
STARTCHAR U
ENCODING 85
SWIDTH 637 0
DWIDTH 9 0
BBX 9 11 0 -1
BITMAP
F780
7700
7700
7600
3600
3600
3600
3600
3E00
3C00
2400
ENDCHAR
STARTCHAR V
ENCODING 86
SWIDTH 570 0
DWIDTH 8 0
BBX 8 11 0 -1
BITMAP
F7
76
6E
3C
3C
3C
3C
38
38
38
18
ENDCHAR
STARTCHAR W
ENCODING 87
SWIDTH 777 0
DWIDTH 11 0
BBX 11 11 0 0
BITMAP
0500
F5E0
77C0
3F80
3F00
3F00
1F00
1F00
1B00
0A00
0A00
ENDCHAR
STARTCHAR X
ENCODING 88
SWIDTH 587 0
DWIDTH 8 0
BBX 8 11 0 -1
BITMAP
F7
3E
3C
1C
1C
18
18
18
1C
1C
32
ENDCHAR
STARTCHAR Y
ENCODING 89
SWIDTH 688 0
DWIDTH 10 0
BBX 10 11 0 -1
BITMAP
F3C0
3B00
1F00
0E00
0E00
0E00
0600
0600
0600
0600
0400
ENDCHAR
STARTCHAR Z
ENCODING 90
SWIDTH 695 0
DWIDTH 10 0
BBX 10 10 0 0
BITMAP
FFC0
7F80
7F00
3F00
2E00
0C00
1C00
1800
1E00
3C00
ENDCHAR
STARTCHAR bracketleft
ENCODING 91
SWIDTH 410 0
DWIDTH 6 0
BBX 5 12 1 0
BITMAP
F0
F0
F0
C0
C0
C0
C0
C0
C0
C0
F8
F0
ENDCHAR
STARTCHAR backslash
ENCODING 92
SWIDTH 292 0
DWIDTH 4 0
BBX 4 12 0 -1
BITMAP
80
C0
40
40
40
60
20
20
20
10
10
10
ENDCHAR
STARTCHAR bracketright
ENCODING 93
SWIDTH 407 0
DWIDTH 6 0
BBX 5 12 0 0
BITMAP
F8
F8
F8
18
18
18
18
18
18
18
F8
F8
ENDCHAR
STARTCHAR asciicircum
ENCODING 94
SWIDTH 523 0
DWIDTH 7 0
BBX 7 5 0 10
BITMAP
38
3C
6C
6E
C4
ENDCHAR
STARTCHAR underscore
ENCODING 95
SWIDTH 452 0
DWIDTH 6 0
BBX 5 2 1 0
BITMAP
F8
F8
ENDCHAR
STARTCHAR grave
ENCODING 96
SWIDTH 444 0
DWIDTH 6 0
BBX 4 3 1 11
BITMAP
40
E0
70
ENDCHAR
STARTCHAR a
ENCODING 97
SWIDTH 479 0
DWIDTH 7 0
BBX 7 11 0 -1
BITMAP
FE
7C
3C
7C
3C
2C
6C
6C
7C
68
68
ENDCHAR
STARTCHAR b
ENCODING 98
SWIDTH 610 0
DWIDTH 9 0
BBX 8 11 0 -1
BITMAP
FF
7F
3F
3F
33
37
3E
3E
36
1E
2E
ENDCHAR
STARTCHAR c
ENCODING 99
SWIDTH 534 0
DWIDTH 7 0
BBX 7 11 0 -1
BITMAP
3C
7E
FE
FE
7E
76
60
64
7C
3C
18
ENDCHAR
STARTCHAR d
ENCODING 100
SWIDTH 573 0
DWIDTH 8 0
BBX 8 12 0 -2
BITMAP
FE
7F
7F
3F
3F
36
32
36
36
3C
2C
20
ENDCHAR
STARTCHAR e
ENCODING 101
SWIDTH 632 0
DWIDTH 9 0
BBX 8 11 0 -1
BITMAP
FF
7F
7E
3E
32
30
3C
3C
32
3C
2A
ENDCHAR
STARTCHAR f
ENCODING 102
SWIDTH 559 0
DWIDTH 8 0
BBX 7 11 0 -1
BITMAP
FE
7E
3E
3C
3C
3C
3C
34
30
30
30
ENDCHAR
STARTCHAR g
ENCODING 103
SWIDTH 546 0
DWIDTH 8 0
BBX 7 11 0 -1
BITMAP
7C
7E
FE
7E
6E
66
68
6E
36
3E
3C
ENDCHAR
STARTCHAR h
ENCODING 104
SWIDTH 730 0
DWIDTH 10 0
BBX 10 11 0 -1
BITMAP
FBC0
7380
7380
3380
3300
3F00
3F00
3700
3700
3600
0500
ENDCHAR
STARTCHAR i
ENCODING 105
SWIDTH 412 0
DWIDTH 6 0
BBX 5 11 0 -1
BITMAP
F8
78
38
30
30
30
30
30
30
30
10
ENDCHAR
STARTCHAR j
ENCODING 106
SWIDTH 458 0
DWIDTH 6 0
BBX 6 11 0 -1
BITMAP
3C
3C
18
18
18
18
58
D8
F8
70
08
ENDCHAR
STARTCHAR k
ENCODING 107
SWIDTH 636 0
DWIDTH 9 0
BBX 9 11 0 -1
BITMAP
F780
7600
3400
3400
3400
3800
3C00
1C00
1600
1600
0400
ENDCHAR
STARTCHAR l
ENCODING 108
SWIDTH 438 0
DWIDTH 6 0
BBX 7 11 0 -1
BITMAP
FC
70
70
70
30
30
30
30
3E
3C
24
ENDCHAR
STARTCHAR m
ENCODING 109
SWIDTH 770 0
DWIDTH 11 0
BBX 11 12 0 -1
BITMAP
0200
FBE0
7B80
7F80
7F80
3F80
7F00
3F00
3F00
3B00
3B00
2100
ENDCHAR
STARTCHAR n
ENCODING 110
SWIDTH 664 0
DWIDTH 9 0
BBX 9 12 0 -2
BITMAP
F780
7B00
7B00
7F00
7F00
7E00
3E00
3E00
3E00
3600
3400
0400
ENDCHAR
STARTCHAR o
ENCODING 111
SWIDTH 545 0
DWIDTH 8 0
BBX 7 11 0 -1
BITMAP
7E
7E
FE
7E
6E
6E
6E
6E
6C
3C
1C
ENDCHAR
STARTCHAR p
ENCODING 112
SWIDTH 557 0
DWIDTH 8 0
BBX 7 11 0 -1
BITMAP
FE
7E
3E
3E
36
36
3E
3C
30
30
30
ENDCHAR
STARTCHAR q
ENCODING 113
SWIDTH 562 0
DWIDTH 8 0
BBX 8 12 0 -2
BITMAP
3E
7E
FE
FF
76
76
76
76
3E
1F
02
02
ENDCHAR
STARTCHAR r
ENCODING 114
SWIDTH 616 0
DWIDTH 9 0
BBX 8 11 0 -1
BITMAP
FF
7F
3F
3F
33
33
3E
3E
36
36
3E
ENDCHAR
STARTCHAR s
ENCODING 115
SWIDTH 481 0
DWIDTH 7 0
BBX 7 11 0 -1
BITMAP
3C
7E
FC
FC
EC
64
78
1C
6C
78
38
ENDCHAR
STARTCHAR t
ENCODING 116
SWIDTH 683 0
DWIDTH 10 0
BBX 9 12 0 -2
BITMAP
FF80
7F00
7F00
3F00
2D00
0C00
0C00
0C00
0C00
0C00
0C00
0400
ENDCHAR
STARTCHAR u
ENCODING 117
SWIDTH 708 0
DWIDTH 10 0
BBX 10 10 0 0
BITMAP
FBC0
7380
7B80
3B00
3B00
3300
3B00
3B00
1F00
1E00
ENDCHAR
STARTCHAR v
ENCODING 118
SWIDTH 644 0
DWIDTH 9 0
BBX 9 11 0 -1
BITMAP
F780
7700
3600
3600
3600
3600
1E00
1C00
1C00
0C00
0C00
ENDCHAR
STARTCHAR w
ENCODING 119
SWIDTH 704 0
DWIDTH 10 0
BBX 10 10 0 0
BITMAP
EDC0
7D80
3F00
3F00
3F00
1F00
1F00
1B00
0A00
0A00
ENDCHAR
STARTCHAR x
ENCODING 120
SWIDTH 599 0
DWIDTH 8 0
BBX 9 11 0 -1
BITMAP
F780
3E00
3C00
1C00
1C00
1800
1800
1800
1C00
1400
2200
ENDCHAR
STARTCHAR y
ENCODING 121
SWIDTH 604 0
DWIDTH 8 0
BBX 8 11 0 -1
BITMAP
F7
36
1C
1C
1C
1C
0C
0C
0C
08
08
ENDCHAR
STARTCHAR z
ENCODING 122
SWIDTH 622 0
DWIDTH 9 0
BBX 8 11 0 -1
BITMAP
FF
7F
3E
3E
2E
0C
18
18
1E
1C
24
ENDCHAR
STARTCHAR braceleft
ENCODING 123
SWIDTH 372 0
DWIDTH 5 0
BBX 4 14 1 -2
BITMAP
10
70
70
F0
F0
C0
C0
C0
C0
C0
C0
E0
70
20
ENDCHAR
STARTCHAR bar
ENCODING 124
SWIDTH 208 0
DWIDTH 3 0
BBX 1 13 1 -2
BITMAP
80
80
80
80
80
80
80
80
80
80
80
80
80
ENDCHAR
STARTCHAR braceright
ENCODING 125
SWIDTH 338 0
DWIDTH 5 0
BBX 4 14 0 -2
BITMAP
80
E0
70
70
70
30
30
30
30
30
30
20
E0
C0
ENDCHAR
STARTCHAR asciitilde
ENCODING 126
SWIDTH 535 0
DWIDTH 8 0
BBX 7 3 0 8
BITMAP
4C
FE
74
ENDCHAR
STARTCHAR exclamdown
ENCODING 161
SWIDTH 347 0
DWIDTH 5 0
BBX 5 16 0 1
BITMAP
70
70
70
F0
00
10
20
30
20
70
70
70
70
70
70
F8
ENDCHAR
STARTCHAR cent
ENCODING 162
SWIDTH 552 0
DWIDTH 8 0
BBX 7 20 0 -5
BITMAP
10
10
10
10
10
3C
7E
FE
FE
7E
76
60
74
7C
3C
18
10
10
10
10
ENDCHAR
STARTCHAR sterling
ENCODING 163
SWIDTH 589 0
DWIDTH 8 0
BBX 7 11 1 -1
BITMAP
78
FC
FE
FE
DC
CC
E0
60
7C
F8
28
ENDCHAR
STARTCHAR yen
ENCODING 165
SWIDTH 692 0
DWIDTH 10 0
BBX 10 11 0 1
BITMAP
F3C0
3780
3F00
1E00
1F80
7E00
6F80
1E80
0C00
0E00
0600
ENDCHAR
STARTCHAR brokenbar
ENCODING 166
SWIDTH 201 0
DWIDTH 3 0
BBX 1 13 1 -2
BITMAP
80
80
80
80
00
00
00
00
80
80
80
80
80
ENDCHAR
STARTCHAR section
ENCODING 167
SWIDTH 477 0
DWIDTH 7 0
BBX 6 14 0 -3
BITMAP
10
3C
7C
7C
6C
70
78
EC
E8
78
78
78
78
30
ENDCHAR
STARTCHAR dieresis
ENCODING 168
SWIDTH 633 0
DWIDTH 9 0
BBX 7 4 1 11
BITMAP
06
EE
EE
EE
ENDCHAR
STARTCHAR copyright
ENCODING 169
SWIDTH 783 0
DWIDTH 11 0
BBX 9 12 1 -1
BITMAP
1C00
6300
DC80
BE80
BE80
BE80
B680
B080
9680
9C80
5B00
3E00
ENDCHAR
STARTCHAR guillemotleft
ENCODING 171
SWIDTH 759 0
DWIDTH 11 0
BBX 10 8 0 1
BITMAP
2540
3B80
7380
7700
E700
7300
3B80
1DC0
ENDCHAR
STARTCHAR uni00AD
ENCODING 173
SWIDTH 446 0
DWIDTH 6 0
BBX 5 2 1 4
BITMAP
F8
F0
ENDCHAR
STARTCHAR registered
ENCODING 174
SWIDTH 780 0
DWIDTH 11 0
BBX 10 12 0 -1
BITMAP
0E00
3100
7E80
5F40
5F40
9B40
8E40
4E40
4F40
2F40
3180
0F00
ENDCHAR
STARTCHAR macron
ENCODING 175
SWIDTH 446 0
DWIDTH 6 0
BBX 5 2 1 4
BITMAP
F8
F0
ENDCHAR
STARTCHAR acute
ENCODING 180
SWIDTH 439 0
DWIDTH 6 0
BBX 4 3 1 11
BITMAP
20
70
E0
ENDCHAR
STARTCHAR mu
ENCODING 181
SWIDTH 679 0
DWIDTH 10 0
BBX 10 10 0 0
BITMAP
F3C0
7780
7300
7300
3300
3700
3700
3700
3E00
3600
ENDCHAR
STARTCHAR paragraph
ENCODING 182
SWIDTH 591 0
DWIDTH 8 0
BBX 8 11 0 -1
BITMAP
7F
FE
FA
7A
7A
7A
0A
0A
0A
0A
0A
ENDCHAR
STARTCHAR periodcentered
ENCODING 183
SWIDTH 388 0
DWIDTH 5 0
BBX 4 5 1 3
BITMAP
20
F0
F0
F0
E0
ENDCHAR
STARTCHAR cedilla
ENCODING 184
SWIDTH 270 0
DWIDTH 4 0
BBX 2 5 1 -5
BITMAP
80
80
C0
40
C0
ENDCHAR
STARTCHAR guillemotright
ENCODING 187
SWIDTH 767 0
DWIDTH 11 0
BBX 10 8 0 1
BITMAP
F400
7300
3980
39C0
39C0
39C0
7380
6700
ENDCHAR
STARTCHAR Agrave
ENCODING 192
SWIDTH 494 0
DWIDTH 7 0
BBX 8 18 -1 -3
BITMAP
60
F0
38
00
00
7F
3C
1C
3C
1C
34
34
1C
3C
14
14
34
08
ENDCHAR
STARTCHAR Aacute
ENCODING 193
SWIDTH 494 0
DWIDTH 7 0
BBX 8 18 0 -3
BITMAP
02
07
0E
00
00
FE
78
38
78
38
68
68
38
78
28
28
68
10
ENDCHAR
STARTCHAR Acircumflex
ENCODING 194
SWIDTH 494 0
DWIDTH 7 0
BBX 7 19 0 -3
BITMAP
38
38
7C
4C
C6
00
FE
78
38
78
38
68
68
38
78
28
28
68
10
ENDCHAR
STARTCHAR Atilde
ENCODING 195
SWIDTH 494 0
DWIDTH 7 0
BBX 7 17 0 -3
BITMAP
4C
FE
74
00
FE
78
38
78
38
68
68
38
78
28
28
68
10
ENDCHAR
STARTCHAR Adieresis
ENCODING 196
SWIDTH 494 0
DWIDTH 7 0
BBX 7 18 0 -3
BITMAP
06
EE
EE
EE
00
FE
78
38
78
38
68
68
38
78
28
28
68
10
ENDCHAR
STARTCHAR Aring
ENCODING 197
SWIDTH 494 0
DWIDTH 7 0
BBX 7 18 0 -3
BITMAP
38
28
28
38
00
FE
78
38
78
38
68
68
38
78
28
28
68
10
ENDCHAR
STARTCHAR AE
ENCODING 198
SWIDTH 733 0
DWIDTH 10 0
BBX 10 13 0 -3
BITMAP
FFC0
7F80
7F80
3F80
3C80
6F00
6F00
7C00
7F00
3F00
2D00
6D00
1000
ENDCHAR
STARTCHAR Ccedilla
ENCODING 199
SWIDTH 504 0
DWIDTH 7 0
BBX 7 17 0 -7
BITMAP
7C
7E
FE
FE
6E
6C
60
6C
6C
3C
28
10
0C
08
0C
04
0C
ENDCHAR
STARTCHAR Egrave
ENCODING 200
SWIDTH 570 0
DWIDTH 8 0
BBX 8 16 0 -1
BITMAP
40
E0
78
00
00
FF
7E
7E
7C
74
3C
38
30
3C
3C
34
ENDCHAR
STARTCHAR Eacute
ENCODING 201
SWIDTH 570 0
DWIDTH 8 0
BBX 9 16 0 -1
BITMAP
0100
0780
0E00
0000
0000
FF00
7E00
7E00
7C00
7400
3C00
3800
3000
3C00
3C00
3400
ENDCHAR
STARTCHAR Ecircumflex
ENCODING 202
SWIDTH 570 0
DWIDTH 8 0
BBX 8 17 0 -1
BITMAP
18
3C
3C
66
42
00
FF
7E
7E
7C
74
3C
38
30
3C
3C
34
ENDCHAR
STARTCHAR Edieresis
ENCODING 203
SWIDTH 570 0
DWIDTH 8 0
BBX 8 16 0 -1
BITMAP
0A
66
67
66
00
FF
7E
7E
7C
74
3C
38
30
3C
3C
34
ENDCHAR
STARTCHAR Igrave
ENCODING 204
SWIDTH 401 0
DWIDTH 6 0
BBX 6 16 -1 -1
BITMAP
40
E0
70
00
00
7C
38
1C
18
18
18
18
18
18
18
18
ENDCHAR
STARTCHAR Iacute
ENCODING 205
SWIDTH 401 0
DWIDTH 6 0
BBX 8 16 0 -1
BITMAP
06
0F
1C
00
00
F8
70
38
30
30
30
30
30
30
30
30
ENDCHAR
STARTCHAR Icircumflex
ENCODING 206
SWIDTH 401 0
DWIDTH 6 0
BBX 6 17 0 -1
BITMAP
50
70
F8
D8
8C
00
F8
70
38
30
30
30
30
30
30
30
30
ENDCHAR
STARTCHAR Idieresis
ENCODING 207
SWIDTH 401 0
DWIDTH 6 0
BBX 7 16 -1 -1
BITMAP
06
EE
EE
EE
00
7C
38
1C
18
18
18
18
18
18
18
18
ENDCHAR
STARTCHAR Eth
ENCODING 208
SWIDTH 530 0
DWIDTH 7 0
BBX 7 12 1 -2
BITMAP
FC
FC
7E
7E
6E
64
F4
6C
2C
78
50
50
ENDCHAR
STARTCHAR Ntilde
ENCODING 209
SWIDTH 610 0
DWIDTH 9 0
BBX 8 16 0 -2
BITMAP
24
7E
36
00
F7
76
7E
7E
7E
3E
3E
3E
3E
34
34
38
ENDCHAR
STARTCHAR Ograve
ENCODING 210
SWIDTH 504 0
DWIDTH 7 0
BBX 8 16 -1 -1
BITMAP
60
F0
38
00
00
3E
3F
7F
3F
37
37
37
36
36
1E
14
ENDCHAR
STARTCHAR Oacute
ENCODING 211
SWIDTH 504 0
DWIDTH 7 0
BBX 8 16 0 -1
BITMAP
02
07
0E
00
00
7C
7E
FE
7E
6E
6E
6E
6C
6C
3C
28
ENDCHAR
STARTCHAR Ocircumflex
ENCODING 212
SWIDTH 504 0
DWIDTH 7 0
BBX 7 17 0 -1
BITMAP
38
38
7C
4C
C6
00
7C
7E
FE
7E
6E
6E
6E
6C
6C
3C
28
ENDCHAR
STARTCHAR Otilde
ENCODING 213
SWIDTH 504 0
DWIDTH 7 0
BBX 7 15 0 -1
BITMAP
4C
FC
6C
00
7C
7E
FE
7E
6E
6E
6E
6C
6C
3C
28
ENDCHAR
STARTCHAR Odieresis
ENCODING 214
SWIDTH 504 0
DWIDTH 7 0
BBX 7 16 0 -1
BITMAP
06
EE
EE
EE
00
7C
7E
FE
7E
6E
6E
6E
6C
6C
3C
28
ENDCHAR
STARTCHAR multiply
ENCODING 215
SWIDTH 359 0
DWIDTH 5 0
BBX 5 5 0 3
BITMAP
50
F8
70
F8
58
ENDCHAR
STARTCHAR Oslash
ENCODING 216
SWIDTH 658 0
DWIDTH 9 0
BBX 9 11 0 -1
BITMAP
3E80
7E80
7F00
7E00
7E00
6E00
7600
2E00
7E00
BC00
9C00
ENDCHAR
STARTCHAR Ugrave
ENCODING 217
SWIDTH 637 0
DWIDTH 9 0
BBX 9 16 0 -1
BITMAP
6000
7000
B800
0000
0000
F780
7700
7700
7600
3600
3600
3600
3600
3E00
3C00
2400
ENDCHAR
STARTCHAR Uacute
ENCODING 218
SWIDTH 637 0
DWIDTH 9 0
BBX 9 16 0 -1
BITMAP
0100
0380
0700
0000
0000
F780
7700
7700
7600
3600
3600
3600
3600
3E00
3C00
2400
ENDCHAR
STARTCHAR Ucircumflex
ENCODING 219
SWIDTH 637 0
DWIDTH 9 0
BBX 9 17 0 -1
BITMAP
1C00
1C00
3E00
3600
6300
0000
F780
7700
7700
7600
3600
3600
3600
3600
3E00
3C00
2400
ENDCHAR
STARTCHAR Udieresis
ENCODING 220
SWIDTH 637 0
DWIDTH 9 0
BBX 9 16 0 -1
BITMAP
0300
7700
7700
7700
0000
F780
7700
7700
7600
3600
3600
3600
3600
3E00
3C00
2400
ENDCHAR
STARTCHAR Yacute
ENCODING 221
SWIDTH 688 0
DWIDTH 10 0
BBX 10 16 0 -1
BITMAP
0080
03C0
0700
0000
0000
F3C0
3B00
1F00
0E00
0E00
0E00
0600
0600
0600
0600
0400
ENDCHAR
STARTCHAR Thorn
ENCODING 222
SWIDTH 521 0
DWIDTH 7 0
BBX 7 15 0 -2
BITMAP
70
F0
F0
7E
7E
7E
7E
76
76
7C
3C
30
30
30
20
ENDCHAR
STARTCHAR germandbls
ENCODING 223
SWIDTH 546 0
DWIDTH 8 0
BBX 7 11 0 -1
BITMAP
7E
7E
7E
FE
66
6C
6C
6C
6C
6C
6C
ENDCHAR
STARTCHAR agrave
ENCODING 224
SWIDTH 479 0
DWIDTH 7 0
BBX 7 16 0 -1
BITMAP
40
E0
70
00
02
FC
7C
3C
7C
3C
2C
6C
6C
7C
68
68
ENDCHAR
STARTCHAR aacute
ENCODING 225
SWIDTH 479 0
DWIDTH 7 0
BBX 8 16 0 -1
BITMAP
02
07
0E
00
02
FC
7C
3C
7C
3C
2C
6C
6C
7C
68
68
ENDCHAR
STARTCHAR acircumflex
ENCODING 226
SWIDTH 479 0
DWIDTH 7 0
BBX 7 17 0 -1
BITMAP
38
38
7C
6C
C6
02
FC
7C
3C
7C
3C
2C
6C
6C
7C
68
68
ENDCHAR
STARTCHAR atilde
ENCODING 227
SWIDTH 479 0
DWIDTH 7 0
BBX 7 15 0 -1
BITMAP
4C
FE
74
02
FC
7C
3C
7C
3C
2C
6C
6C
7C
68
68
ENDCHAR
STARTCHAR adieresis
ENCODING 228
SWIDTH 479 0
DWIDTH 7 0
BBX 7 16 0 -1
BITMAP
06
EE
EE
EE
02
FC
7C
3C
7C
3C
2C
6C
6C
7C
68
68
ENDCHAR
STARTCHAR aring
ENCODING 229
SWIDTH 479 0
DWIDTH 7 0
BBX 7 16 0 -1
BITMAP
38
2C
28
38
02
FC
7C
3C
7C
3C
2C
6C
6C
7C
68
68
ENDCHAR
STARTCHAR ae
ENCODING 230
SWIDTH 755 0
DWIDTH 11 0
BBX 10 11 0 -1
BITMAP
FFC0
7F80
3F80
7F80
3D80
2C00
6F00
6F00
7C00
2F00
6B00
ENDCHAR
STARTCHAR ccedilla
ENCODING 231
SWIDTH 534 0
DWIDTH 7 0
BBX 7 16 0 -6
BITMAP
3C
7E
FE
FE
7E
76
60
64
7C
3C
18
08
08
0C
04
0C
ENDCHAR
STARTCHAR egrave
ENCODING 232
SWIDTH 632 0
DWIDTH 9 0
BBX 8 16 0 -1
BITMAP
60
F0
38
00
00
FF
7F
7E
3E
32
30
3C
3C
32
3C
2A
ENDCHAR
STARTCHAR eacute
ENCODING 233
SWIDTH 632 0
DWIDTH 9 0
BBX 9 16 0 -1
BITMAP
0100
0380
0700
0000
0000
FF00
7F00
7E00
3E00
3200
3000
3C00
3C00
3200
3C00
2A00
ENDCHAR
STARTCHAR ecircumflex
ENCODING 234
SWIDTH 632 0
DWIDTH 9 0
BBX 8 17 0 -1
BITMAP
1C
1C
3E
26
62
00
FF
7F
7E
3E
32
30
3C
3C
32
3C
2A
ENDCHAR
STARTCHAR edieresis
ENCODING 235
SWIDTH 632 0
DWIDTH 9 0
BBX 8 16 0 -1
BITMAP
03
77
77
77
00
FF
7F
7E
3E
32
30
3C
3C
32
3C
2A
ENDCHAR
STARTCHAR igrave
ENCODING 236
SWIDTH 411 0
DWIDTH 6 0
BBX 6 16 -1 -1
BITMAP
40
E0
70
00
00
7C
3C
1C
18
18
18
18
18
18
18
08
ENDCHAR
STARTCHAR iacute
ENCODING 237
SWIDTH 411 0
DWIDTH 6 0
BBX 8 16 0 -1
BITMAP
06
0F
1C
00
00
F8
78
38
30
30
30
30
30
30
30
10
ENDCHAR
STARTCHAR icircumflex
ENCODING 238
SWIDTH 411 0
DWIDTH 6 0
BBX 6 17 0 -1
BITMAP
30
78
78
CC
84
00
F8
78
38
30
30
30
30
30
30
30
10
ENDCHAR
STARTCHAR idieresis
ENCODING 239
SWIDTH 411 0
DWIDTH 6 0
BBX 7 16 -1 -1
BITMAP
06
EE
EE
6E
00
7C
3C
1C
18
18
18
18
18
18
18
08
ENDCHAR
STARTCHAR eth
ENCODING 240
SWIDTH 530 0
DWIDTH 7 0
BBX 7 12 1 -2
BITMAP
FC
FC
7E
7E
6E
64
F4
6C
2C
78
50
50
ENDCHAR
STARTCHAR ntilde
ENCODING 241
SWIDTH 664 0
DWIDTH 9 0
BBX 9 16 0 -2
BITMAP
2600
7F00
3A00
0000
F780
7B00
7B00
7F00
7F00
7E00
3E00
3E00
3E00
3600
3400
0400
ENDCHAR
STARTCHAR ograve
ENCODING 242
SWIDTH 545 0
DWIDTH 8 0
BBX 7 16 0 -1
BITMAP
40
E0
70
00
00
7E
7E
FE
7E
6E
6E
6E
6E
6C
3C
1C
ENDCHAR
STARTCHAR oacute
ENCODING 243
SWIDTH 545 0
DWIDTH 8 0
BBX 9 16 0 -1
BITMAP
0300
0780
0E00
0000
0000
7E00
7E00
FE00
7E00
6E00
6E00
6E00
6E00
6C00
3C00
1C00
ENDCHAR
STARTCHAR ocircumflex
ENCODING 244
SWIDTH 545 0
DWIDTH 8 0
BBX 7 17 0 -1
BITMAP
28
38
7C
6C
C6
00
7E
7E
FE
7E
6E
6E
6E
6E
6C
3C
1C
ENDCHAR
STARTCHAR otilde
ENCODING 245
SWIDTH 545 0
DWIDTH 8 0
BBX 7 15 0 -1
BITMAP
4C
FE
74
00
7E
7E
FE
7E
6E
6E
6E
6E
6C
3C
1C
ENDCHAR
STARTCHAR odieresis
ENCODING 246
SWIDTH 545 0
DWIDTH 8 0
BBX 7 16 0 -1
BITMAP
06
EE
EE
EE
00
7E
7E
FE
7E
6E
6E
6E
6E
6C
3C
1C
ENDCHAR
STARTCHAR oslash
ENCODING 248
SWIDTH 676 0
DWIDTH 9 0
BBX 9 11 0 -1
BITMAP
3E80
7F00
7E00
7E00
6E00
6E00
7600
6E00
7C00
BC00
1C00
ENDCHAR
STARTCHAR ugrave
ENCODING 249
SWIDTH 708 0
DWIDTH 10 0
BBX 10 15 0 0
BITMAP
2000
7000
3C00
0000
0800
F3C0
7380
7B80
3B00
3B00
3300
3B00
3B00
1F00
1E00
ENDCHAR
STARTCHAR uacute
ENCODING 250
SWIDTH 708 0
DWIDTH 10 0
BBX 10 15 0 0
BITMAP
0080
03C0
0700
0000
0800
F3C0
7380
7B80
3B00
3B00
3300
3B00
3B00
1F00
1E00
ENDCHAR
STARTCHAR ucircumflex
ENCODING 251
SWIDTH 708 0
DWIDTH 10 0
BBX 10 16 0 0
BITMAP
0C00
1E00
1E00
3300
2100
0800
F3C0
7380
7B80
3B00
3B00
3300
3B00
3B00
1F00
1E00
ENDCHAR
STARTCHAR udieresis
ENCODING 252
SWIDTH 708 0
DWIDTH 10 0
BBX 10 15 0 0
BITMAP
0500
3300
3380
3300
0800
F3C0
7380
7B80
3B00
3B00
3300
3B00
3B00
1F00
1E00
ENDCHAR
STARTCHAR yacute
ENCODING 253
SWIDTH 604 0
DWIDTH 8 0
BBX 9 16 0 -1
BITMAP
0100
0380
0E00
0000
0000
F700
3600
1C00
1C00
1C00
1C00
0C00
0C00
0C00
0800
0800
ENDCHAR
STARTCHAR thorn
ENCODING 254
SWIDTH 498 0
DWIDTH 7 0
BBX 7 15 0 -2
BITMAP
70
F0
E0
7C
7E
7E
7C
74
74
7C
3C
30
30
30
20
ENDCHAR
STARTCHAR ydieresis
ENCODING 255
SWIDTH 604 0
DWIDTH 8 0
BBX 8 16 0 -1
BITMAP
03
77
77
77
00
F7
36
1C
1C
1C
1C
0C
0C
0C
08
08
ENDCHAR
STARTCHAR Amacron
ENCODING 256
SWIDTH 494 0
DWIDTH 7 0
BBX 7 16 0 -3
BITMAP
7C
7C
00
FE
78
38
78
38
68
68
38
78
28
28
68
10
ENDCHAR
STARTCHAR amacron
ENCODING 257
SWIDTH 479 0
DWIDTH 7 0
BBX 7 14 0 -1
BITMAP
7C
7C
02
FC
7C
3C
7C
3C
2C
6C
6C
7C
68
68
ENDCHAR
STARTCHAR Abreve
ENCODING 258
SWIDTH 494 0
DWIDTH 7 0
BBX 7 18 0 -3
BITMAP
66
26
3C
1C
00
FE
78
38
78
38
68
68
38
78
28
28
68
10
ENDCHAR
STARTCHAR abreve
ENCODING 259
SWIDTH 479 0
DWIDTH 7 0
BBX 7 16 0 -1
BITMAP
66
26
3C
1C
02
FC
7C
3C
7C
3C
2C
6C
6C
7C
68
68
ENDCHAR
STARTCHAR Aogonek
ENCODING 260
SWIDTH 494 0
DWIDTH 7 0
BBX 7 16 0 -6
BITMAP
FE
78
38
78
38
68
68
38
78
28
28
58
10
18
1E
0E
ENDCHAR
STARTCHAR aogonek
ENCODING 261
SWIDTH 479 0
DWIDTH 7 0
BBX 7 15 0 -5
BITMAP
FE
7C
3C
7C
3C
2C
6C
6C
7C
68
68
08
08
0E
06
ENDCHAR
STARTCHAR Cacute
ENCODING 262
SWIDTH 504 0
DWIDTH 7 0
BBX 8 17 0 -2
BITMAP
06
0F
1C
00
00
7C
7E
FE
FE
6E
6C
60
6C
6C
3C
28
10
ENDCHAR
STARTCHAR cacute
ENCODING 263
SWIDTH 534 0
DWIDTH 7 0
BBX 8 16 0 -1
BITMAP
02
07
1C
00
00
3C
7E
FE
FE
7E
76
60
64
7C
3C
18
ENDCHAR
STARTCHAR Ccircumflex
ENCODING 264
SWIDTH 504 0
DWIDTH 7 0
BBX 7 18 0 -2
BITMAP
28
3C
3C
66
46
00
7C
7E
FE
FE
6E
6C
60
6C
6C
3C
28
10
ENDCHAR
STARTCHAR ccircumflex
ENCODING 265
SWIDTH 534 0
DWIDTH 7 0
BBX 7 17 0 -1
BITMAP
18
3C
3C
26
42
00
3C
7E
FE
FE
7E
76
60
64
7C
3C
18
ENDCHAR
STARTCHAR Cdotaccent
ENCODING 266
SWIDTH 504 0
DWIDTH 7 0
BBX 7 18 0 -2
BITMAP
08
3C
3C
3C
38
00
7C
7E
FE
FE
6E
6C
60
6C
6C
3C
28
10
ENDCHAR
STARTCHAR cdotaccent
ENCODING 267
SWIDTH 534 0
DWIDTH 7 0
BBX 7 17 0 -1
BITMAP
08
3C
3C
3C
3C
00
3C
7E
FE
FE
7E
76
60
64
7C
3C
18
ENDCHAR
STARTCHAR Ccaron
ENCODING 268
SWIDTH 504 0
DWIDTH 7 0
BBX 7 18 0 -2
BITMAP
C4
6E
6C
3C
38
00
7C
7E
FE
FE
6E
6C
60
6C
6C
3C
28
10
ENDCHAR
STARTCHAR ccaron
ENCODING 269
SWIDTH 534 0
DWIDTH 7 0
BBX 7 17 0 -1
BITMAP
22
66
3E
3C
1C
00
3C
7E
FE
FE
7E
76
60
64
7C
3C
18
ENDCHAR
STARTCHAR Dcaron
ENCODING 270
SWIDTH 522 0
DWIDTH 7 0
BBX 7 18 0 -2
BITMAP
22
66
36
3C
1C
00
FC
7E
7E
7E
76
36
34
34
3C
3C
28
30
ENDCHAR
STARTCHAR dcaron
ENCODING 271
SWIDTH 522 0
DWIDTH 7 0
BBX 7 18 0 -2
BITMAP
22
66
36
3C
1C
00
FC
7E
7E
7E
76
36
34
34
3C
3C
28
30
ENDCHAR
STARTCHAR Eth.dup2
ENCODING 272
SWIDTH 530 0
DWIDTH 7 0
BBX 7 12 1 -2
BITMAP
FC
FC
7E
7E
6E
64
F4
6C
2C
78
50
50
ENDCHAR
STARTCHAR Emacron
ENCODING 274
SWIDTH 570 0
DWIDTH 8 0
BBX 8 14 0 -1
BITMAP
3C
3C
00
FF
7E
7E
7C
74
3C
38
30
3C
3C
34
ENDCHAR
STARTCHAR emacron
ENCODING 275
SWIDTH 632 0
DWIDTH 9 0
BBX 8 14 0 -1
BITMAP
3E
3E
00
FF
7F
7E
3E
32
30
3C
3C
32
3C
2A
ENDCHAR
STARTCHAR Ebreve
ENCODING 276
SWIDTH 570 0
DWIDTH 8 0
BBX 8 16 0 -1
BITMAP
32
36
1E
14
00
FF
7E
7E
7C
74
3C
38
30
3C
3C
34
ENDCHAR
STARTCHAR ebreve
ENCODING 277
SWIDTH 632 0
DWIDTH 9 0
BBX 8 16 0 -1
BITMAP
13
1B
1E
0E
00
FF
7F
7E
3E
32
30
3C
3C
32
3C
2A
ENDCHAR
STARTCHAR Edotaccent
ENCODING 278
SWIDTH 570 0
DWIDTH 8 0
BBX 8 17 0 -1
BITMAP
08
3C
3C
3C
3C
00
FF
7E
7E
7C
74
3C
38
30
3C
3C
34
ENDCHAR
STARTCHAR edotaccent
ENCODING 279
SWIDTH 632 0
DWIDTH 9 0
BBX 8 17 0 -1
BITMAP
04
3C
1C
1C
1C
00
FF
7F
7E
3E
32
30
3C
3C
32
3C
2A
ENDCHAR
STARTCHAR Eogonek
ENCODING 280
SWIDTH 513 0
DWIDTH 7 0
BBX 8 15 0 -5
BITMAP
FF
7E
7E
7C
74
3C
38
30
3C
3C
28
18
18
0E
02
ENDCHAR
STARTCHAR eogonek
ENCODING 281
SWIDTH 632 0
DWIDTH 9 0
BBX 8 15 0 -5
BITMAP
FF
7F
7E
3E
32
30
3C
3C
32
3C
2C
0C
0C
07
03
ENDCHAR
STARTCHAR Ecaron
ENCODING 282
SWIDTH 570 0
DWIDTH 8 0
BBX 8 17 0 -1
BITMAP
22
66
36
3C
1C
00
FF
7E
7E
7C
74
3C
38
30
3C
3C
34
ENDCHAR
STARTCHAR ecaron
ENCODING 283
SWIDTH 632 0
DWIDTH 9 0
BBX 8 17 0 -1
BITMAP
22
33
3E
1E
1C
00
FF
7F
7E
3E
32
30
3C
3C
32
3C
2A
ENDCHAR
STARTCHAR Gcircumflex
ENCODING 284
SWIDTH 499 0
DWIDTH 7 0
BBX 7 17 0 -1
BITMAP
38
38
7C
6C
C6
00
7C
7C
FE
7E
6C
6C
6C
6C
6C
3C
28
ENDCHAR
STARTCHAR gcircumflex
ENCODING 285
SWIDTH 546 0
DWIDTH 8 0
BBX 7 17 0 -1
BITMAP
28
38
7C
6C
46
00
7C
7E
FE
7E
6E
66
68
6E
36
3E
3C
ENDCHAR
STARTCHAR Gbreve
ENCODING 286
SWIDTH 499 0
DWIDTH 7 0
BBX 7 16 0 -1
BITMAP
64
6C
3C
28
00
7C
7C
FE
7E
6C
6C
6C
6C
6C
3C
28
ENDCHAR
STARTCHAR gbreve
ENCODING 287
SWIDTH 546 0
DWIDTH 8 0
BBX 7 16 0 -1
BITMAP
66
26
3C
1C
00
7C
7E
FE
7E
6E
66
68
6E
36
3E
3C
ENDCHAR
STARTCHAR Gdotaccent
ENCODING 288
SWIDTH 499 0
DWIDTH 7 0
BBX 7 17 0 -1
BITMAP
48
38
38
38
38
00
7C
7C
FE
7E
6C
6C
6C
6C
6C
3C
28
ENDCHAR
STARTCHAR gdotaccent
ENCODING 289
SWIDTH 546 0
DWIDTH 8 0
BBX 7 17 0 -1
BITMAP
4C
38
3C
3C
38
00
7C
7E
FE
7E
6E
66
68
6E
36
3E
3C
ENDCHAR
STARTCHAR Gcommaaccent
ENCODING 290
SWIDTH 499 0
DWIDTH 7 0
BBX 7 18 0 -8
BITMAP
7C
7C
FE
7E
6C
6C
6C
6C
6C
3C
28
00
3C
3C
3C
3C
08
08
ENDCHAR
STARTCHAR Hcircumflex
ENCODING 292
SWIDTH 726 0
DWIDTH 10 0
BBX 10 19 0 -3
BITMAP
0C00
1E00
1E00
3300
2100
0800
F3C0
7380
7380
3300
3300
3F00
3F00
3700
3600
3600
2600
0400
0400
ENDCHAR
STARTCHAR hcircumflex
ENCODING 293
SWIDTH 730 0
DWIDTH 10 0
BBX 10 17 0 -1
BITMAP
0C00
1E00
1E00
3300
2100
0800
F3C0
7380
7380
3380
3300
3F00
3F00
3700
3700
3600
0500
ENDCHAR
STARTCHAR hbar
ENCODING 295
SWIDTH 704 0
DWIDTH 10 0
BBX 10 11 0 -1
BITMAP
FFC0
7380
7F00
3F00
3300
3F00
3F00
3700
3700
3600
0500
ENDCHAR
STARTCHAR Itilde
ENCODING 296
SWIDTH 401 0
DWIDTH 6 0
BBX 7 15 -1 -1
BITMAP
4C
FE
74
00
7C
38
1C
18
18
18
18
18
18
18
18
ENDCHAR
STARTCHAR itilde
ENCODING 297
SWIDTH 411 0
DWIDTH 6 0
BBX 7 15 -1 -1
BITMAP
4C
FE
74
00
7C
3C
1C
18
18
18
18
18
18
18
08
ENDCHAR
STARTCHAR Imacron
ENCODING 298
SWIDTH 401 0
DWIDTH 6 0
BBX 5 14 0 -1
BITMAP
F8
F8
00
F8
70
38
30
30
30
30
30
30
30
30
ENDCHAR
STARTCHAR imacron
ENCODING 299
SWIDTH 411 0
DWIDTH 6 0
BBX 5 14 0 -1
BITMAP
F8
F8
00
F8
78
38
30
30
30
30
30
30
30
10
ENDCHAR
STARTCHAR Ibreve
ENCODING 300
SWIDTH 401 0
DWIDTH 6 0
BBX 6 16 0 -1
BITMAP
CC
4C
78
38
00
F8
70
38
30
30
30
30
30
30
30
30
ENDCHAR
STARTCHAR ibreve
ENCODING 301
SWIDTH 411 0
DWIDTH 6 0
BBX 6 16 0 -1
BITMAP
CC
4C
78
38
00
F8
78
38
30
30
30
30
30
30
30
10
ENDCHAR
STARTCHAR Iogonek
ENCODING 302
SWIDTH 401 0
DWIDTH 6 0
BBX 5 15 0 -5
BITMAP
F8
70
38
30
30
30
30
30
30
30
20
20
20
30
38
ENDCHAR
STARTCHAR iogonek
ENCODING 303
SWIDTH 412 0
DWIDTH 6 0
BBX 5 15 0 -5
BITMAP
F8
78
38
30
30
30
30
30
30
30
30
20
20
38
38
ENDCHAR
STARTCHAR Idotaccent
ENCODING 304
SWIDTH 401 0
DWIDTH 6 0
BBX 5 17 0 -1
BITMAP
90
70
78
70
70
00
F8
70
38
30
30
30
30
30
30
30
30
ENDCHAR
STARTCHAR dotlessi
ENCODING 305
SWIDTH 411 0
DWIDTH 6 0
BBX 5 11 0 -1
BITMAP
F8
78
38
30
30
30
30
30
30
30
10
ENDCHAR
STARTCHAR IJ
ENCODING 306
SWIDTH 908 0
DWIDTH 13 0
BBX 12 11 0 -1
BITMAP
FCF0
7870
3860
3860
3060
3060
3160
3360
3360
31C0
3180
ENDCHAR
STARTCHAR ij
ENCODING 307
SWIDTH 901 0
DWIDTH 13 0
BBX 12 11 0 -1
BITMAP
FCF0
38F0
3860
3060
3060
3060
3160
3360
3360
31E0
0820
ENDCHAR
STARTCHAR Jcircumflex
ENCODING 308
SWIDTH 455 0
DWIDTH 6 0
BBX 7 17 0 -1
BITMAP
18
3C
3C
66
42
00
3C
18
18
18
18
18
50
D0
F0
F0
20
ENDCHAR
STARTCHAR jcircumflex
ENCODING 309
SWIDTH 458 0
DWIDTH 6 0
BBX 7 17 0 -1
BITMAP
18
3C
3C
66
42
00
3C
3C
18
18
18
18
58
D8
F8
70
08
ENDCHAR
STARTCHAR Kcommaaccent
ENCODING 310
SWIDTH 580 0
DWIDTH 8 0
BBX 8 17 0 -7
BITMAP
F7
74
3C
3C
3C
3C
3C
3C
34
34
34
1C
1C
1C
1C
04
0C
ENDCHAR
STARTCHAR kcommaaccent
ENCODING 311
SWIDTH 636 0
DWIDTH 9 0
BBX 9 17 0 -7
BITMAP
F780
7600
3400
3400
3400
3800
3C00
1C00
1600
1600
0400
1E00
1E00
1E00
1E00
0400
0400
ENDCHAR
STARTCHAR kgreenlandic
ENCODING 312
SWIDTH 636 0
DWIDTH 9 0
BBX 9 11 0 -1
BITMAP
F780
7600
3400
3400
3400
3800
3C00
1C00
1600
1600
0400
ENDCHAR
STARTCHAR Lacute
ENCODING 313
SWIDTH 416 0
DWIDTH 6 0
BBX 8 16 0 -1
BITMAP
06
0F
1C
00
88
70
70
70
70
70
70
30
30
3C
3C
3C
ENDCHAR
STARTCHAR lacute
ENCODING 314
SWIDTH 438 0
DWIDTH 6 0
BBX 8 16 0 -1
BITMAP
02
0F
1C
00
04
F8
70
70
70
30
30
30
30
3E
3C
24
ENDCHAR
STARTCHAR Lcommaaccent
ENCODING 315
SWIDTH 416 0
DWIDTH 6 0
BBX 6 18 0 -8
BITMAP
F8
70
70
70
70
70
30
30
3C
3C
3C
00
38
38
38
38
18
18
ENDCHAR
STARTCHAR lcommaaccent
ENCODING 316
SWIDTH 438 0
DWIDTH 6 0
BBX 7 18 0 -8
BITMAP
FC
70
70
70
30
30
30
30
3E
3C
24
00
38
38
38
38
08
18
ENDCHAR
STARTCHAR Lcaron
ENCODING 317
SWIDTH 714 0
DWIDTH 10 0
BBX 10 12 0 -1
BITMAP
8B80
7380
73C0
7380
7080
7080
7080
3000
3000
3C00
3C00
3C00
ENDCHAR
STARTCHAR lcaron
ENCODING 318
SWIDTH 782 0
DWIDTH 11 0
BBX 10 12 0 -1
BITMAP
05C0
F9C0
71C0
71C0
7040
3040
3040
3000
3000
3E00
3C00
2400
ENDCHAR
STARTCHAR Ldotaccent
ENCODING 319
SWIDTH 567 0
DWIDTH 8 0
BBX 9 11 0 -1
BITMAP
F800
7000
7780
7700
7780
7780
3000
3000
3C00
3C00
3C00
ENDCHAR
STARTCHAR ldot
ENCODING 320
SWIDTH 660 0
DWIDTH 9 0
BBX 10 11 0 -1
BITMAP
FC00
7000
7080
73C0
33C0
33C0
33C0
3000
3E00
3C00
2400
ENDCHAR
STARTCHAR Lslash
ENCODING 321
SWIDTH 428 0
DWIDTH 6 0
BBX 7 11 0 -1
BITMAP
F8
70
74
7C
FE
F8
70
30
3C
3C
1C
ENDCHAR
STARTCHAR lslash
ENCODING 322
SWIDTH 457 0
DWIDTH 6 0
BBX 7 11 0 -1
BITMAP
FC
70
36
3E
7E
F8
70
30
3E
3C
24
ENDCHAR
STARTCHAR Nacute
ENCODING 323
SWIDTH 610 0
DWIDTH 9 0
BBX 9 17 0 -2
BITMAP
0100
0380
0700
0000
0000
F700
7600
7E00
7E00
7E00
3E00
3E00
3E00
3E00
3400
3400
3800
ENDCHAR
STARTCHAR nacute
ENCODING 324
SWIDTH 664 0
DWIDTH 9 0
BBX 10 17 0 -2
BITMAP
0180
03C0
0700
0000
0000
F780
7B00
7B00
7F00
7F00
7E00
3E00
3E00
3E00
3600
3400
0400
ENDCHAR
STARTCHAR Ncommaaccent
ENCODING 325
SWIDTH 610 0
DWIDTH 9 0
BBX 8 19 0 -9
BITMAP
F7
76
7E
7E
7E
3E
3E
3E
3E
34
34
38
00
1E
1E
1E
1E
04
04
ENDCHAR
STARTCHAR ncommaaccent
ENCODING 326
SWIDTH 664 0
DWIDTH 9 0
BBX 9 18 0 -8
BITMAP
F780
7B00
7B00
7F00
7F00
7E00
3E00
3E00
3E00
3600
3400
0400
0E00
0E00
0E00
0E00
0600
0600
ENDCHAR
STARTCHAR Ncaron
ENCODING 327
SWIDTH 610 0
DWIDTH 9 0
BBX 8 18 0 -2
BITMAP
22
77
36
3C
1C
00
F7
76
7E
7E
7E
3E
3E
3E
3E
34
34
38
ENDCHAR
STARTCHAR ncaron
ENCODING 328
SWIDTH 664 0
DWIDTH 9 0
BBX 9 18 0 -2
BITMAP
2100
3300
1E00
1E00
1C00
0000
F780
7B00
7B00
7F00
7F00
7E00
3E00
3E00
3E00
3600
3400
0400
ENDCHAR
STARTCHAR Omacron
ENCODING 332
SWIDTH 504 0
DWIDTH 7 0
BBX 7 14 0 -1
BITMAP
7C
7C
00
7C
7E
FE
7E
6E
6E
6E
6C
6C
3C
28
ENDCHAR
STARTCHAR omacron
ENCODING 333
SWIDTH 545 0
DWIDTH 8 0
BBX 7 14 0 -1
BITMAP
7C
7C
00
7E
7E
FE
7E
6E
6E
6E
6E
6C
3C
1C
ENDCHAR
STARTCHAR Obreve
ENCODING 334
SWIDTH 504 0
DWIDTH 7 0
BBX 7 16 0 -1
BITMAP
66
6C
3C
1C
00
7C
7E
FE
7E
6E
6E
6E
6C
6C
3C
28
ENDCHAR
STARTCHAR obreve
ENCODING 335
SWIDTH 545 0
DWIDTH 8 0
BBX 7 16 0 -1
BITMAP
66
24
3C
1C
00
7E
7E
FE
7E
6E
6E
6E
6E
6C
3C
1C
ENDCHAR
STARTCHAR Ohungarumlaut
ENCODING 336
SWIDTH 504 0
DWIDTH 7 0
BBX 7 17 0 -1
BITMAP
24
36
6C
4C
88
00
7C
7E
FE
7E
6E
6E
6E
6C
6C
3C
28
ENDCHAR
STARTCHAR ohungarumlaut
ENCODING 337
SWIDTH 545 0
DWIDTH 8 0
BBX 8 17 0 -1
BITMAP
24
37
36
6C
48
00
7E
7E
FE
7E
6E
6E
6E
6E
6C
3C
1C
ENDCHAR
STARTCHAR OE
ENCODING 338
SWIDTH 789 0
DWIDTH 11 0
BBX 11 12 0 -2
BITMAP
7FE0
7FC0
FFC0
7F80
6E40
6F00
6F80
6E00
6F80
3F80
2A80
2A80
ENDCHAR
STARTCHAR oe
ENCODING 339
SWIDTH 778 0
DWIDTH 11 0
BBX 10 11 0 -1
BITMAP
7FC0
7FC0
FF80
7F80
6E80
6E00
6F00
6F00
6C00
3F80
2A80
ENDCHAR
STARTCHAR Racute
ENCODING 340
SWIDTH 599 0
DWIDTH 8 0
BBX 9 16 0 -1
BITMAP
0100
0380
0E00
0000
0000
FE00
7F00
3F00
3F00
3300
3700
3E00
3E00
1600
1600
1A00
ENDCHAR
STARTCHAR racute
ENCODING 341
SWIDTH 616 0
DWIDTH 9 0
BBX 9 16 0 -1
BITMAP
0100
0380
0700
0000
0000
FF00
7F00
3F00
3F00
3300
3300
3E00
3E00
3600
3600
3E00
ENDCHAR
STARTCHAR Rcommaaccent
ENCODING 342
SWIDTH 599 0
DWIDTH 8 0
BBX 8 18 0 -8
BITMAP
FE
7F
3F
3F
33
37
3E
3E
16
16
1A
00
1C
1C
1C
1C
04
0C
ENDCHAR
STARTCHAR rcommaaccent
ENCODING 343
SWIDTH 616 0
DWIDTH 9 0
BBX 8 18 0 -8
BITMAP
FF
7F
3F
3F
33
33
3E
3E
36
36
3E
00
1C
1C
1E
1C
04
04
ENDCHAR
STARTCHAR Rcaron
ENCODING 344
SWIDTH 599 0
DWIDTH 8 0
BBX 8 17 0 -1
BITMAP
22
33
36
1E
1C
00
FE
7F
3F
3F
33
37
3E
3E
16
16
1A
ENDCHAR
STARTCHAR rcaron
ENCODING 345
SWIDTH 616 0
DWIDTH 9 0
BBX 8 17 0 -1
BITMAP
62
33
36
1E
1C
00
FF
7F
3F
3F
33
33
3E
3E
36
36
3E
ENDCHAR
STARTCHAR Sacute
ENCODING 346
SWIDTH 504 0
DWIDTH 7 0
BBX 8 16 0 -1
BITMAP
02
07
0E
00
00
3C
7E
FE
FE
EE
70
7C
0C
6C
7C
38
ENDCHAR
STARTCHAR sacute
ENCODING 347
SWIDTH 481 0
DWIDTH 7 0
BBX 8 16 0 -1
BITMAP
02
07
1E
00
00
3C
7E
FC
FC
EC
64
78
1C
6C
78
38
ENDCHAR
STARTCHAR Scircumflex
ENCODING 348
SWIDTH 504 0
DWIDTH 7 0
BBX 7 17 0 -1
BITMAP
18
3C
3C
66
42
00
3C
7E
FE
FE
EE
70
7C
0C
6C
7C
38
ENDCHAR
STARTCHAR scircumflex
ENCODING 349
SWIDTH 481 0
DWIDTH 7 0
BBX 7 17 0 -1
BITMAP
28
38
7C
6C
46
00
3C
7E
FC
FC
EC
64
78
1C
6C
78
38
ENDCHAR
STARTCHAR Scedilla
ENCODING 350
SWIDTH 504 0
DWIDTH 7 0
BBX 7 15 0 -5
BITMAP
3C
7E
FE
FE
EE
70
7C
0C
6C
7C
38
10
1C
08
18
ENDCHAR
STARTCHAR scedilla
ENCODING 351
SWIDTH 481 0
DWIDTH 7 0
BBX 7 15 0 -5
BITMAP
3C
7E
FC
FC
EC
64
78
1C
6C
78
38
10
38
08
38
ENDCHAR
STARTCHAR Scaron
ENCODING 352
SWIDTH 503 0
DWIDTH 7 0
BBX 7 19 0 -1
BITMAP
44
E6
6C
3C
38
00
00
00
3C
7E
FE
FE
EE
70
7C
0C
6C
7C
38
ENDCHAR
STARTCHAR scaron
ENCODING 353
SWIDTH 479 0
DWIDTH 7 0
BBX 7 19 0 -1
BITMAP
44
C6
6C
7C
38
00
00
00
3C
7E
FC
FC
EC
64
78
1C
6C
78
38
ENDCHAR
STARTCHAR Tcommaaccent
ENCODING 354
SWIDTH 622 0
DWIDTH 9 0
BBX 8 16 0 -6
BITMAP
FF
7F
7F
7E
7E
0C
1C
1C
0C
0C
0C
08
08
0C
04
0C
ENDCHAR
STARTCHAR tcommaaccent
ENCODING 355
SWIDTH 683 0
DWIDTH 10 0
BBX 9 16 0 -6
BITMAP
FF80
7F00
7F00
3F00
2D00
0C00
0C00
0C00
0C00
0C00
0C00
0400
0800
0E00
0200
0E00
ENDCHAR
STARTCHAR Tcaron
ENCODING 356
SWIDTH 622 0
DWIDTH 9 0
BBX 8 18 0 -2
BITMAP
22
67
36
3C
1C
00
FF
7F
7F
7E
7E
0C
1C
1C
0C
0C
0C
10
ENDCHAR
STARTCHAR tcaron
ENCODING 357
SWIDTH 622 0
DWIDTH 9 0
BBX 8 18 0 -2
BITMAP
22
33
36
1E
1C
00
FF
7F
7F
7E
7E
0C
1C
1C
0C
0C
0C
10
ENDCHAR
STARTCHAR Utilde
ENCODING 360
SWIDTH 637 0
DWIDTH 9 0
BBX 9 15 0 -1
BITMAP
2600
7F00
3A00
0000
F780
7700
7700
7600
3600
3600
3600
3600
3E00
3C00
2400
ENDCHAR
STARTCHAR utilde
ENCODING 361
SWIDTH 708 0
DWIDTH 10 0
BBX 10 14 0 0
BITMAP
2600
3F00
3A00
0800
F3C0
7380
7B80
3B00
3B00
3300
3B00
3B00
1F00
1E00
ENDCHAR
STARTCHAR Umacron
ENCODING 362
SWIDTH 637 0
DWIDTH 9 0
BBX 9 14 0 -1
BITMAP
3E00
3E00
0000
F780
7700
7700
7600
3600
3600
3600
3600
3E00
3C00
2400
ENDCHAR
STARTCHAR umacron
ENCODING 363
SWIDTH 708 0
DWIDTH 10 0
BBX 10 13 0 0
BITMAP
1E00
1E00
0800
F3C0
7380
7B80
3B00
3B00
3300
3B00
3B00
1F00
1E00
ENDCHAR
STARTCHAR Ubreve
ENCODING 364
SWIDTH 637 0
DWIDTH 9 0
BBX 9 16 0 -1
BITMAP
3300
1200
1E00
0E00
0000
F780
7700
7700
7600
3600
3600
3600
3600
3E00
3C00
2400
ENDCHAR
STARTCHAR ubreve
ENCODING 365
SWIDTH 708 0
DWIDTH 10 0
BBX 10 15 0 0
BITMAP
1B00
1B00
1F00
0D00
0800
F3C0
7380
7B80
3B00
3B00
3300
3B00
3B00
1F00
1E00
ENDCHAR
STARTCHAR Uring
ENCODING 366
SWIDTH 637 0
DWIDTH 9 0
BBX 9 16 0 -1
BITMAP
1C00
1600
1400
1C00
0000
F780
7700
7700
7600
3600
3600
3600
3600
3E00
3C00
2400
ENDCHAR
STARTCHAR uring
ENCODING 367
SWIDTH 708 0
DWIDTH 10 0
BBX 10 15 0 0
BITMAP
0E00
1A00
0A00
0C00
0800
F3C0
7380
7B80
3B00
3B00
3300
3B00
3B00
1F00
1E00
ENDCHAR
STARTCHAR Uhungarumlaut
ENCODING 368
SWIDTH 637 0
DWIDTH 9 0
BBX 9 17 0 -1
BITMAP
1200
1B00
3700
2600
6400
0000
F780
7700
7700
7600
3600
3600
3600
3600
3E00
3C00
2400
ENDCHAR
STARTCHAR uhungarumlaut
ENCODING 369
SWIDTH 708 0
DWIDTH 10 0
BBX 10 16 0 0
BITMAP
1200
1B80
1B00
3200
2400
0800
F3C0
7380
7B80
3B00
3B00
3300
3B00
3B00
1F00
1E00
ENDCHAR
STARTCHAR Uogonek
ENCODING 370
SWIDTH 637 0
DWIDTH 9 0
BBX 9 14 0 -4
BITMAP
F780
7700
7700
7600
3600
3600
3600
3600
3E00
3C00
2C00
0C00
0F00
0700
ENDCHAR
STARTCHAR uogonek
ENCODING 371
SWIDTH 662 0
DWIDTH 9 0
BBX 10 14 0 -4
BITMAP
FBC0
7380
7B80
3B00
3B00
3300
3300
3F00
1F00
1E00
0800
0800
0E00
0600
ENDCHAR
STARTCHAR Wcircumflex
ENCODING 372
SWIDTH 777 0
DWIDTH 11 0
BBX 11 17 0 0
BITMAP
0E00
0E00
1F00
1300
3180
0000
0500
F5E0
77C0
3F80
3F00
3F00
1F00
1F00
1B00
0A00
0A00
ENDCHAR
STARTCHAR wcircumflex
ENCODING 373
SWIDTH 704 0
DWIDTH 10 0
BBX 10 16 0 0
BITMAP
0C00
1E00
1E00
3300
2100
0000
EDC0
7D80
3F00
3F00
3F00
1F00
1F00
1B00
0A00
0A00
ENDCHAR
STARTCHAR Ycircumflex
ENCODING 374
SWIDTH 688 0
DWIDTH 10 0
BBX 10 18 0 -1
BITMAP
1400
1E00
1E00
3300
2300
0000
0000
F3C0
3B00
1F00
0E00
0E00
0E00
0600
0600
0600
0600
0400
ENDCHAR
STARTCHAR ycircumflex
ENCODING 375
SWIDTH 604 0
DWIDTH 8 0
BBX 8 17 0 -1
BITMAP
18
3C
3C
26
42
00
F7
36
1C
1C
1C
1C
0C
0C
0C
08
08
ENDCHAR
STARTCHAR Ydieresis
ENCODING 376
SWIDTH 688 0
DWIDTH 10 0
BBX 10 16 0 -1
BITMAP
0500
3300
3300
3300
0000
F3C0
3B00
1F00
0E00
0E00
0E00
0600
0600
0600
0600
0400
ENDCHAR
STARTCHAR Zacute
ENCODING 377
SWIDTH 695 0
DWIDTH 10 0
BBX 10 15 0 0
BITMAP
0080
01C0
0700
0000
0000
FFC0
7F80
7F00
3F00
2E00
0C00
1C00
1800
1E00
3C00
ENDCHAR
STARTCHAR zacute
ENCODING 378
SWIDTH 622 0
DWIDTH 9 0
BBX 9 16 0 -1
BITMAP
0100
0380
0700
0000
0000
FF00
7F00
3E00
3E00
2E00
0C00
1800
1800
1E00
1C00
2400
ENDCHAR
STARTCHAR Zdotaccent
ENCODING 379
SWIDTH 695 0
DWIDTH 10 0
BBX 10 16 0 0
BITMAP
0400
1E00
1E00
1E00
0E00
0000
FFC0
7F80
7F00
3F00
2E00
0C00
1C00
1800
1E00
3C00
ENDCHAR
STARTCHAR zdotaccent
ENCODING 380
SWIDTH 622 0
DWIDTH 9 0
BBX 8 17 0 -1
BITMAP
04
3C
1C
1C
1C
00
FF
7F
3E
3E
2E
0C
18
18
1E
1C
24
ENDCHAR
STARTCHAR Zcaron
ENCODING 381
SWIDTH 693 0
DWIDTH 10 0
BBX 10 18 0 0
BITMAP
1100
3300
1F00
1E00
1E00
0000
0000
0000
FFC0
7F80
7F00
3F00
2E00
0C00
1C00
1800
1E00
3C00
ENDCHAR
STARTCHAR zcaron
ENCODING 382
SWIDTH 621 0
DWIDTH 9 0
BBX 8 19 0 -1
BITMAP
22
67
36
3C
1C
00
00
00
FF
7F
3E
3E
2E
0C
18
18
1E
1C
24
ENDCHAR
STARTCHAR DZ
ENCODING 497
SWIDTH 194 0
DWIDTH 3 0
BBX 1 1 0 0
BITMAP
00
ENDCHAR
STARTCHAR Dz
ENCODING 498
SWIDTH 194 0
DWIDTH 3 0
BBX 1 1 0 0
BITMAP
00
ENDCHAR
STARTCHAR dotlessj
ENCODING 567
SWIDTH 458 0
DWIDTH 6 0
BBX 6 11 0 -1
BITMAP
3C
3C
18
18
18
18
58
D8
F8
70
08
ENDCHAR
STARTCHAR circumflex
ENCODING 710
SWIDTH 528 0
DWIDTH 7 0
BBX 6 5 1 10
BITMAP
50
70
F8
D8
8C
ENDCHAR
STARTCHAR caron
ENCODING 711
SWIDTH 486 0
DWIDTH 7 0
BBX 7 5 0 10
BITMAP
44
CE
6C
78
38
ENDCHAR
STARTCHAR breve
ENCODING 728
SWIDTH 464 0
DWIDTH 7 0
BBX 5 4 1 -1
BITMAP
98
D8
F0
70
ENDCHAR
STARTCHAR dotaccent
ENCODING 729
SWIDTH 388 0
DWIDTH 5 0
BBX 4 5 1 3
BITMAP
20
F0
F0
F0
E0
ENDCHAR
STARTCHAR ring
ENCODING 730
SWIDTH 370 0
DWIDTH 5 0
BBX 4 4 1 4
BITMAP
E0
B0
A0
E0
ENDCHAR
STARTCHAR ogonek
ENCODING 731
SWIDTH 360 0
DWIDTH 5 0
BBX 3 5 1 0
BITMAP
80
80
80
E0
60
ENDCHAR
STARTCHAR tilde
ENCODING 732
SWIDTH 535 0
DWIDTH 8 0
BBX 7 3 0 -1
BITMAP
4C
FE
74
ENDCHAR
STARTCHAR hungarumlaut
ENCODING 733
SWIDTH 554 0
DWIDTH 8 0
BBX 7 5 1 10
BITMAP
48
6E
CC
D8
90
ENDCHAR
STARTCHAR dotaccentcmb
ENCODING 775
SWIDTH 396 0
DWIDTH 6 0
BBX 4 5 1 5
BITMAP
60
F0
F0
F0
D0
ENDCHAR
STARTCHAR uni030F
ENCODING 783
SWIDTH 549 0
DWIDTH 8 0
BBX 7 5 0 10
BITMAP
24
EC
6C
26
12
ENDCHAR
STARTCHAR uni0311
ENCODING 785
SWIDTH 490 0
DWIDTH 7 0
BBX 5 4 1 5
BITMAP
70
F8
D8
98
ENDCHAR
STARTCHAR uni0326
ENCODING 806
SWIDTH 360 0
DWIDTH 5 0
BBX 3 6 1 -1
BITMAP
E0
E0
E0
E0
20
20
ENDCHAR
STARTCHAR endash
ENCODING 8211
SWIDTH 478 0
DWIDTH 7 0
BBX 5 3 1 4
BITMAP
F8
F8
F8
ENDCHAR
STARTCHAR emdash
ENCODING 8212
SWIDTH 567 0
DWIDTH 8 0
BBX 6 3 1 4
BITMAP
FC
FC
FC
ENDCHAR
STARTCHAR quoteleft
ENCODING 8216
SWIDTH 373 0
DWIDTH 5 0
BBX 4 7 1 3
BITMAP
C0
80
F0
E0
E0
E0
A0
ENDCHAR
STARTCHAR quoteright
ENCODING 8217
SWIDTH 369 0
DWIDTH 5 0
BBX 3 7 1 3
BITMAP
E0
E0
E0
E0
20
20
20
ENDCHAR
STARTCHAR quotesinglbase
ENCODING 8218
SWIDTH 369 0
DWIDTH 5 0
BBX 3 7 1 3
BITMAP
E0
E0
E0
E0
20
20
20
ENDCHAR
STARTCHAR quotedblleft
ENCODING 8220
SWIDTH 687 0
DWIDTH 10 0
BBX 8 7 1 3
BITMAP
C4
8C
FF
EF
EF
EF
AB
ENDCHAR
STARTCHAR quotedblright
ENCODING 8221
SWIDTH 677 0
DWIDTH 9 0
BBX 8 7 1 3
BITMAP
EF
EF
EF
EF
22
22
62
ENDCHAR
STARTCHAR quotedblbase
ENCODING 8222
SWIDTH 697 0
DWIDTH 10 0
BBX 8 7 1 -4
BITMAP
AD
EF
EF
EF
EB
23
23
ENDCHAR
STARTCHAR ellipsis
ENCODING 8230
SWIDTH 1462 0
DWIDTH 20 0
BBX 20 4 0 1
BITMAP
F0F0F0
7070F0
7070F0
707070
ENDCHAR
STARTCHAR guilsinglleft
ENCODING 8249
SWIDTH 459 0
DWIDTH 6 0
BBX 6 8 0 1
BITMAP
3C
38
38
F0
70
70
38
1C
ENDCHAR
STARTCHAR guilsinglright
ENCODING 8250
SWIDTH 432 0
DWIDTH 6 0
BBX 6 8 0 1
BITMAP
F0
70
38
1C
38
38
70
60
ENDCHAR
STARTCHAR fraction
ENCODING 8260
SWIDTH 371 0
DWIDTH 5 0
BBX 5 11 0 -1
BITMAP
F8
70
70
70
70
30
30
30
30
30
10
ENDCHAR
STARTCHAR Euro
ENCODING 8364
SWIDTH 587 0
DWIDTH 8 0
BBX 8 13 0 -3
BITMAP
3E
3F
7F
3F
37
FE
30
FE
36
3C
0C
08
08
ENDCHAR
STARTCHAR trademark
ENCODING 8482
SWIDTH 785 0
DWIDTH 11 0
BBX 11 8 0 3
BITMAP
05A0
FBC0
73C0
6BC0
2340
2340
22C0
2000
ENDCHAR
STARTCHAR minus
ENCODING 8722
SWIDTH 478 0
DWIDTH 7 0
BBX 5 3 1 4
BITMAP
F8
F8
F8
ENDCHAR
STARTCHAR commaaccent
ENCODING 63171
SWIDTH 360 0
DWIDTH 5 0
BBX 3 7 1 -2
BITMAP
E0
E0
E0
E0
20
20
20
ENDCHAR
STARTCHAR .notdef
ENCODING -1
SWIDTH 365 0
DWIDTH 5 0
BBX 4 9 0 0
BITMAP
F0
90
90
90
90
90
90
90
F0
ENDCHAR
STARTCHAR .null
ENCODING -1
SWIDTH 0 0
DWIDTH 0 0
BBX 1 1 0 0
BITMAP
00
ENDCHAR
STARTCHAR nonmarkingreturn
ENCODING -1
SWIDTH 333 0
DWIDTH 5 0
BBX 1 1 0 0
BITMAP
00
ENDCHAR
ENDFONT
